<svg preserveAspectRatio="none" overflow="visible" style="display: block;" width="24" height="24" viewBox="0 0 24 24" fill="none" xmlns="http://www.w3.org/2000/svg">
<g id="72px (Default) / Globoplay">
<circle id="Oval Copy" cx="12" cy="12" r="11.5" fill="url(#paint0_linear_0_1321)" stroke="#DBDBDB"/>
<g id="Globoplay">
<path d="M8.36684 7.51575C8.36684 8.58833 8.36684 9.77895 8.35631 10.8862L8.35585 10.9201C8.35351 11.1116 8.35241 11.2015 8.09995 11.3132C8.07938 11.3221 8.05176 11.3351 8.02105 11.3497C7.96784 11.3749 7.90534 11.4044 7.85411 11.4243C7.69256 11.4902 7.54508 11.4243 7.54858 11.1917C7.55208 10.7266 7.54858 10.2614 7.54508 9.79627C7.54508 9.60887 7.54508 9.42138 7.54858 9.23048V7.24845C7.54858 7.01242 7.6434 6.9326 7.9384 7.06101L7.94895 7.06552C8.28087 7.20756 8.36684 7.24435 8.36684 7.51575Z" fill="white"/>
<path fill-rule="evenodd" clip-rule="evenodd" d="M18.8533 9.88654C18.8322 10.7717 18.172 11.4243 17.2624 11.4173C16.3739 11.4139 15.6926 10.7474 15.7102 9.8414C15.7102 8.90422 16.4371 8.27244 17.287 8.28289C18.2492 8.29326 18.8744 9.0014 18.8533 9.88654ZM17.2519 9.05345C17.7189 9.05345 18.0385 9.37279 18.042 9.8449C18.0456 10.2996 17.726 10.6502 17.301 10.6571C16.8766 10.6594 16.5262 10.3299 16.5074 9.91085C16.4793 9.40402 16.8515 9.04999 17.2519 9.05345Z" fill="white"/>
<path d="M13.0821 13.3999C13.0815 12.9174 13.0808 12.4335 13.0861 11.9496C13.0861 11.8039 13.0334 11.7379 12.8824 11.7448C12.8004 11.7471 12.7185 11.7463 12.6366 11.7456C12.5956 11.7452 12.5546 11.7448 12.5136 11.7448C12.2959 11.7483 12.2643 11.7795 12.2643 11.9982V15.7887C12.2643 15.9449 12.3275 16.0247 12.4961 16.0143C12.6247 16.0074 12.7537 16.0074 12.8824 16.0143C13.0299 16.0213 13.0861 15.9623 13.0861 15.813C13.0808 15.3317 13.0815 14.8482 13.0821 14.366L13.0821 14.3594C13.0824 14.2006 13.0826 14.0415 13.0826 13.8831C13.0826 13.7222 13.0824 13.5611 13.0821 13.3999Z" fill="white"/>
<path d="M19.841 13.5491C19.8814 13.4486 19.9219 13.3481 19.9623 13.2478C20.0396 13.0569 20.0045 13.0014 19.7972 13.0014C19.7529 13.0014 19.7088 13.0019 19.665 13.0025C19.5561 13.0039 19.4483 13.0053 19.3407 12.9979C19.2072 12.991 19.1405 13.0396 19.0984 13.1645C19.0238 13.398 18.9404 13.6281 18.8569 13.8583C18.8225 13.9532 18.788 14.0482 18.7542 14.1434C18.7231 14.2293 18.6895 14.32 18.655 14.4133L18.6548 14.4138L18.6546 14.4143L18.6545 14.4146C18.5958 14.5734 18.5342 14.74 18.4768 14.9036C18.4768 14.9036 18.0062 13.6991 17.7884 13.1506C17.7463 13.0465 17.6901 12.9944 17.5707 13.0014C17.453 13.0088 17.3371 13.0074 17.2205 13.006C17.1736 13.0054 17.1264 13.0048 17.0791 13.0048C16.8227 13.0048 16.8122 13.0187 16.9175 13.2548C17.2862 14.0844 18.094 15.9206 18.094 15.9206C18.0254 16.0833 17.9432 16.2401 17.8482 16.3892C17.7463 16.5593 17.5953 16.5975 17.4057 16.5558C17.1088 16.4868 17.1072 16.4898 16.9655 16.7632L16.9632 16.7676C16.9421 16.8023 16.921 16.837 16.9035 16.8717C16.8508 16.9689 16.8192 17.08 16.9281 17.1355C16.9561 17.15 16.9826 17.1662 17.0099 17.1828C17.1263 17.2537 17.257 17.3333 17.5813 17.3333C18.1502 17.3333 18.4979 16.8196 18.6418 16.476C18.8806 15.9067 19.1686 15.209 19.4004 14.6363C19.547 14.2794 19.6916 13.9203 19.8356 13.5624L19.841 13.5491Z" fill="white"/>
<path fill-rule="evenodd" clip-rule="evenodd" d="M16.3837 12.9979C16.3206 13.0025 16.2591 13.001 16.197 12.9995C16.1658 12.9987 16.1345 12.9979 16.1028 12.9979C15.8241 12.9948 15.8239 12.9972 15.8013 13.1904L15.8012 13.1907C15.7982 13.2166 15.7948 13.2459 15.7902 13.2791C15.7619 13.2598 15.7381 13.2441 15.7169 13.2302C15.696 13.2164 15.6777 13.2043 15.6603 13.1923C15.2107 12.8452 14.6453 12.8625 14.1853 13.1576C13.2757 13.7407 13.2055 15.0771 14.0448 15.754C14.3433 15.9935 14.5365 16.0664 14.9719 16.0768C15.3231 16.0594 15.6111 15.9171 15.7832 15.7123C15.7832 16.0179 15.8382 16.0178 16.1111 16.0178L16.1203 16.0178C16.1471 16.0178 16.1743 16.017 16.2016 16.0163C16.2566 16.0147 16.3122 16.0132 16.3662 16.0178C16.5277 16.0317 16.5909 15.9519 16.5909 15.806V13.2027C16.5909 13.0673 16.5417 12.9806 16.3837 12.9979ZM15.0281 15.3062C14.5962 15.3166 14.2801 14.966 14.2801 14.494C14.2274 14.1225 14.5786 13.6956 15.0211 13.6956C15.3828 13.6991 15.7902 13.9733 15.7867 14.4974C15.7832 14.9799 15.4706 15.2958 15.0281 15.3062Z" fill="white"/>
<path fill-rule="evenodd" clip-rule="evenodd" d="M9.5216 13.2607L9.52152 13.2964C10.3679 12.5015 11.6146 13.0986 11.8394 14.1156C12.0079 14.8793 11.6813 15.6047 11.0246 15.9275C10.5927 16.1358 10.1677 16.1323 9.75683 15.8685C9.70763 15.8338 9.662 15.8026 9.57771 15.7505C9.57771 15.8963 9.57812 16.0381 9.57851 16.1773V16.1782C9.57928 16.4495 9.58002 16.711 9.57771 16.9723C9.57418 17.2639 9.57068 17.2639 9.27219 17.2639C9.23707 17.2639 9.20195 17.2632 9.16682 17.2624C9.09658 17.2609 9.02634 17.2593 8.95613 17.2639C8.81914 17.2709 8.77352 17.2014 8.77352 17.0765V13.1819C8.77352 13.0534 8.82268 12.9875 8.95963 12.9979C9.04741 13.0048 9.20546 13.0014 9.29325 12.9979C9.52252 12.9946 9.52229 13.0597 9.5216 13.2607ZM10.3222 15.3028C9.89028 15.3097 9.56015 14.9487 9.56364 14.494C9.56718 14.0254 9.89377 13.6887 10.3573 13.706C10.835 13.7234 11.0773 14.0496 11.0843 14.5009C11.0913 14.9695 10.7753 15.2958 10.3222 15.3028Z" fill="white"/>
<path fill-rule="evenodd" clip-rule="evenodd" d="M12.9814 11.3028C13.0005 11.2707 13.0051 11.2009 13.0087 11.1465C13.0117 11.1007 13.014 11.0658 13.0236 11.0737C13.2694 11.3026 13.5955 11.4283 13.9332 11.4243C14.4424 11.4243 14.7479 11.2195 15.0113 10.9175C15.4924 10.4003 15.4889 9.36934 15.0534 8.84864C14.7128 8.43557 14.3019 8.27594 13.891 8.27594C13.6136 8.27594 13.2659 8.40089 13.0833 8.59529C13.0798 8.58138 13.0728 7.66502 13.0728 7.28667C13.0728 7.13046 13.0166 7.0506 12.848 7.05755C12.7447 7.06308 12.6436 7.05982 12.5412 7.05651C12.5148 7.05566 12.4883 7.0548 12.4617 7.0541C12.3107 7.0506 12.2405 7.11309 12.2405 7.26931C12.244 8.55015 12.244 9.86918 12.244 11.15C12.2418 11.2005 12.2527 11.2507 12.2756 11.2958C12.3352 11.393 12.9288 11.4 12.9814 11.3028ZM13.8067 9.05694C14.2492 9.05694 14.5653 9.39016 14.5618 9.85877C14.5583 10.3135 14.2387 10.6537 13.8102 10.6571C13.3818 10.6571 13.0411 10.3066 13.0517 9.84836C13.0622 9.36588 13.3853 9.05345 13.8067 9.05694Z" fill="white"/>
<path fill-rule="evenodd" clip-rule="evenodd" d="M10.3159 8.2794C9.40639 8.26899 8.74263 9.01181 8.73206 9.81713C8.71803 10.7266 9.39935 11.4312 10.3089 11.4277C11.2115 11.4243 11.8787 10.7509 11.8857 9.8449C11.8822 9.00836 11.2571 8.28981 10.3159 8.2794ZM9.5363 9.81713C9.52227 10.2718 9.86289 10.6502 10.2913 10.6571C10.7198 10.6641 11.0534 10.3239 11.0675 9.87958C11.078 9.42834 10.7619 9.06735 10.3475 9.05694C9.89452 9.04654 9.55037 9.36934 9.5363 9.81713Z" fill="white"/>
<path fill-rule="evenodd" clip-rule="evenodd" d="M6.71275 8.32453C6.62846 8.32103 6.49152 8.32453 6.43183 8.36617C6.37214 8.4113 6.35807 8.49807 6.36156 8.63692C5.99984 8.29676 5.58896 8.19608 5.14645 8.32799C4.49327 8.52238 4.12102 8.97709 4.02266 9.61924C3.93137 10.1989 4.11398 10.7127 4.60566 11.0772C4.83393 11.2507 5.18158 11.3652 5.49414 11.3652C5.92608 11.3618 6.16842 11.2021 6.29134 11.0598C6.30537 11.5423 6.09117 11.8929 5.52578 11.9033C5.16052 11.9172 4.84092 11.8096 4.53539 11.6325C4.37385 11.5388 4.29659 11.5666 4.21584 11.7263C4.20435 11.749 4.19285 11.7719 4.1813 11.7949C4.14697 11.8634 4.11214 11.933 4.07535 12.0005C4.00509 12.1289 4.02969 12.2087 4.15964 12.3129C4.39495 12.4969 4.84446 12.7051 5.44848 12.7051C6.88483 12.7051 7.15173 11.6534 7.14474 10.8203C7.15372 10.4089 7.15263 9.88345 7.1516 9.39012C7.15103 9.11345 7.15047 8.84684 7.15173 8.6161L7.15198 8.59509C7.15347 8.47419 7.15428 8.40774 7.12164 8.37106C7.0818 8.32629 6.99212 8.32589 6.79297 8.32498C6.76801 8.32487 6.74127 8.32475 6.71275 8.32453ZM4.80927 9.8414C4.81281 10.3517 5.13586 10.6398 5.57838 10.6433C5.99275 10.6502 6.32991 10.3378 6.32638 9.84836C6.32991 9.38324 6.02089 9.06386 5.58187 9.05345C5.14639 9.04304 4.80578 9.35198 4.80927 9.8414Z" fill="white"/>
</g>
</g>
<defs>
<linearGradient id="paint0_linear_0_1321" x1="4.80046" y1="19.4027" x2="19.6058" y2="33.8018" gradientUnits="userSpaceOnUse">
<stop stop-color="#FE262B"/>
<stop offset="1" stop-color="#FE8902"/>
</linearGradient>
</defs>
</svg>
