<svg preserveAspectRatio="none" overflow="visible" style="display: block;" width="22.8424" height="24" viewBox="0 0 22.8424 24" fill="none" xmlns="http://www.w3.org/2000/svg">
<g id="Seta esquerda">
<path id="Seta direita" d="M3.87848 11.6188C3.78327 11.8588 3.78327 12.1387 3.87848 12.3787C3.92608 12.4987 3.99273 12.6087 4.08793 12.7086L10.7524 19.7075C11.1237 20.0975 11.7235 20.0975 12.0948 19.7075C12.4661 19.3176 12.4661 18.6877 12.0948 18.2978L7.04886 12.9986L18.0833 12.9986C18.6069 12.9986 19.0354 12.5487 19.0354 11.9988C19.0354 11.4488 18.6069 10.9989 18.0833 10.9989L7.04886 10.9989L12.0853 5.70973C12.4566 5.31979 12.4566 4.68989 12.0853 4.29995C11.9044 4.09998 11.6664 4 11.4188 4C11.1713 4 10.9333 4.09999 10.7429 4.28996L4.07841 11.2889C3.99273 11.3788 3.92608 11.4988 3.87848 11.6188Z" fill="#1F1D1D"/>
</g>
</svg>
